<mxfile host="app.diagrams.net" modified="2023-08-26T11:52:49.681Z" agent="Mozilla/5.0 (Macintosh; Intel Mac OS X 10_15_7) AppleWebKit/537.36 (KHTML, like Gecko) Chrome/116.0.0.0 Safari/537.36" etag="V00GDm3xfODvobgW4FyQ" version="21.6.9" type="github">
  <diagram id="3228e29e-7158-1315-38df-8450db1d8a1d" name="Page-1">
    <mxGraphModel dx="2375" dy="1376" grid="0" gridSize="10" guides="1" tooltips="1" connect="1" arrows="1" fold="1" page="1" pageScale="1" pageWidth="1200" pageHeight="1000" background="#EFF1F3" math="0" shadow="0">
      <root>
        <mxCell id="0" />
        <mxCell id="1" parent="0" />
        <mxCell id="T-5VQnCJckOgUX1Wp16H-28" value="&lt;font style=&quot;font-size: 30px;&quot; color=&quot;#4a919b&quot;&gt;客户端&lt;/font&gt;" style="text;html=1;strokeColor=none;fillColor=none;align=center;verticalAlign=middle;whiteSpace=wrap;rounded=0;fontSize=22;" parent="1" vertex="1">
          <mxGeometry x="304.76" y="231.16" width="106.52" height="20" as="geometry" />
        </mxCell>
        <mxCell id="aH1-eks404bDhsACtXEq-3" value="&lt;font color=&quot;#535e80&quot; style=&quot;font-size: 30px;&quot;&gt;服务端&lt;/font&gt;" style="text;html=1;strokeColor=none;fillColor=none;align=center;verticalAlign=middle;whiteSpace=wrap;rounded=0;fontSize=22;" parent="1" vertex="1">
          <mxGeometry x="731" y="231.16" width="179" height="20" as="geometry" />
        </mxCell>
        <mxCell id="TGPx2V8O0Z7DVdudsgvW-3" value="" style="shape=image;verticalLabelPosition=bottom;verticalAlign=top;imageAspect=0;aspect=fixed;image=data:image/svg+xml,PHN2ZyB4bWxuczp4bGluaz0iaHR0cDovL3d3dy53My5vcmcvMTk5OS94bGluayIgeG1sbnM9Imh0dHA6Ly93d3cudzMub3JnLzIwMDAvc3ZnIiBoZWlnaHQ9IjIwMCIgd2lkdGg9IjIwMCIgdmVyc2lvbj0iMS4xIiB2aWV3Qm94PSIwIDAgMTAyNCAxMDI0IiBjbGFzcz0iaWNvbiI+PGRlZnM+PHN0eWxlIHR5cGU9InRleHQvY3NzIj5AZm9udC1mYWNlIHsgZm9udC1mYW1pbHk6IGZlZWRiYWNrLWljb25mb250OyBzcmM6IHVybCgiLy9hdC5hbGljZG4uY29tL3QvZm9udF8xMDMxMTU4X3U2OXc4eWh4ZHUud29mZjI/dD0xNjMwMDMzNzU5OTQ0IikgZm9ybWF0KCJ3b2ZmMiIpLCB1cmwoIi8vYXQuYWxpY2RuLmNvbS90L2ZvbnRfMTAzMTE1OF91Njl3OHloeGR1LndvZmY/dD0xNjMwMDMzNzU5OTQ0IikgZm9ybWF0KCJ3b2ZmIiksIHVybCgiLy9hdC5hbGljZG4uY29tL3QvZm9udF8xMDMxMTU4X3U2OXc4eWh4ZHUudHRmP3Q9MTYzMDAzMzc1OTk0NCIpIGZvcm1hdCgidHJ1ZXR5cGUiKTsgfSYjeGE7PC9zdHlsZT48L2RlZnM+PHBhdGggZmlsbD0iIzRBOTE5QiIgZD0iTTg0Mi4zOTQ1OTUgNzk5LjczMzIzNyA2NDAuOTczMDc2IDc5OS43MzMyMzcgNjQwLjk3MzA3NiA5MTQuODI1NTA4bDU3LjU0OTAwNSAwYzE1LjkwMzg1MyAwIDI4Ljc3NDUwMyAxMi44NjkwOTkgMjguNzc0NTAzIDI4Ljc3MzMyNCAwIDE1LjkwMzIwMi0xMi44NzA2NDkgMjguNzcyMy0yOC43NzQ1MDMgMjguNzcyM0wzNTMuMjI4MDUgOTcyLjM3MTEzMmMtMTUuOTA0ODc3IDAtMjguNzc0NTAzLTEyLjg2OTA5OS0yOC43NzQ1MDMtMjguNzcyMyAwLTE1LjkwNDIyNSAxMi44Njk2MjYtMjguNzczMzI0IDI4Ljc3NDUwMy0yOC43NzMzMjRsNTcuNTQ5MDA1IDBMNDEwLjc3NzA1NSA3OTkuNzMzMjM3IDE4MC41ODEwMzQgNzk5LjczMzIzN2MtNjMuNTYyMTk5IDAtMTE1LjA5ODAxMS01MS41MzM3LTExNS4wOTgwMTEtMTE1LjA5MzI5NUw2NS40ODMwMjMgMTY2LjcyMDExNmMwLTYzLjU1OTU5NSA1MS41MzU4MTItMTE1LjA5MzI5NSAxMTUuMDk4MDExLTExNS4wOTMyOTVsNjYxLjgxMjUzNyAwYzYzLjU2MTE3NiAwIDExNS4wOTgwMTEgNTEuNTMzNyAxMTUuMDk4MDExIDExNS4wOTMyOTVsMCA1MTcuOTE5ODI2Qzk1Ny40OTE1ODIgNzQ4LjE5ODUxMyA5MDUuOTU1NzcgNzk5LjczMzIzNyA4NDIuMzk0NTk1IDc5OS43MzMyMzd6TTU4My40MjQwNzEgOTE0LjgyNTUwOCA1ODMuNDI0MDcxIDc5OS43MzMyMzcgNDY4LjMyNjA2IDc5OS43MzMyMzcgNDY4LjMyNjA2IDkxNC44MjU1MDggNTgzLjQyNDA3MSA5MTQuODI1NTA4ek04OTkuOTQyNTc3IDE2Ni43MjAxMTZjMC0zMS43Nzk3OTctMjUuNzY3OTA2LTU3LjU0NjY0Ny01Ny41NDc5ODItNTcuNTQ2NjQ3TDE4MC41ODEwMzQgMTA5LjE3MzQ2OGMtMzEuNzgxMDk5IDAtNTcuNTQ5MDA1IDI1Ljc2Njg1LTU3LjU0OTAwNSA1Ny41NDY2NDdsMCA0MDIuODI2NTMyTDg5OS45NDI1NzcgNTY5LjU0NjY0NyA4OTkuOTQyNTc3IDE2Ni43MjAxMTZ6TTg5OS45NDI1NzcgNjI3LjA5MzI5NSAxMjMuMDMzMDUyIDYyNy4wOTMyOTVsMCA1Ny41NDY2NDdjMCAzMS43Nzk3OTcgMjUuNzY3OTA2IDU3LjU0NTYyNCA1Ny41NDkwMDUgNTcuNTQ1NjI0bDY2MS44MTI1MzcgMGMzMS43ODEwOTkgMCA1Ny41NDc5ODItMjUuNzY2ODUgNTcuNTQ3OTgyLTU3LjU0NTYyNEw4OTkuOTQyNTc3IDYyNy4wOTMyOTV6Ii8+PC9zdmc+" parent="1" vertex="1">
          <mxGeometry x="286" y="79.62000000000003" width="144.04" height="144.04" as="geometry" />
        </mxCell>
        <mxCell id="TGPx2V8O0Z7DVdudsgvW-17" value="" style="rounded=1;whiteSpace=wrap;html=1;strokeColor=#000000;fillColor=#FCFBF8;" parent="1" vertex="1">
          <mxGeometry x="299" y="283.58000000000004" width="602" height="165" as="geometry" />
        </mxCell>
        <mxCell id="TGPx2V8O0Z7DVdudsgvW-19" value="" style="shape=image;verticalLabelPosition=bottom;verticalAlign=top;imageAspect=0;aspect=fixed;image=data:image/svg+xml,PHN2ZyB4bWxuczp4bGluaz0iaHR0cDovL3d3dy53My5vcmcvMTk5OS94bGluayIgeG1sbnM9Imh0dHA6Ly93d3cudzMub3JnLzIwMDAvc3ZnIiBoZWlnaHQ9IjIwMCIgd2lkdGg9IjIwMCIgdmVyc2lvbj0iMS4xIiB2aWV3Qm94PSIwIDAgMTAyNCAxMDI0IiBjbGFzcz0iaWNvbiI+PHBhdGggZmlsbD0iIzRBOTE5QiIgZD0iTTMxMi44ODg4ODkgOTk1LjU1NTU1NmMtMTcuMDY2NjY3IDAtMjguNDQ0NDQ0LTUuNjg4ODg5LTM5LjgyMjIyMi0xNy4wNjY2NjctMjIuNzU1NTU2LTIyLjc1NTU1Ni0xNy4wNjY2NjctNTYuODg4ODg5IDUuNjg4ODg5LTc5LjY0NDQ0NWwzNjQuMDg4ODg4LTMyOS45NTU1NTVjMTEuMzc3Nzc4LTExLjM3Nzc3OCAxNy4wNjY2NjctMjIuNzU1NTU2IDE3LjA2NjY2Ny0zNC4xMzMzMzMgMC0xMS4zNzc3NzgtNS42ODg4ODktMjIuNzU1NTU2LTE3LjA2NjY2Ny0zNC4xMzMzMzRMMjczLjA2NjY2NyAxODcuNzMzMzMzYy0yMi43NTU1NTYtMjIuNzU1NTU2LTI4LjQ0NDQ0NC01Ni44ODg4ODktNS42ODg4ODktNzkuNjQ0NDQ0IDIyLjc1NTU1Ni0yMi43NTU1NTYgNTYuODg4ODg5LTI4LjQ0NDQ0NCA3OS42NDQ0NDQtNS42ODg4ODlsMzY0LjA4ODg4OSAzMTIuODg4ODg5YzM0LjEzMzMzMyAyOC40NDQ0NDQgNTYuODg4ODg5IDczLjk1NTU1NiA1Ni44ODg4ODkgMTE5LjQ2NjY2N3MtMTcuMDY2NjY3IDg1LjMzMzMzMy01MS4yIDExOS40NjY2NjZsLTM2NC4wODg4ODkgMzI5Ljk1NTU1NmMtMTEuMzc3Nzc4IDUuNjg4ODg5LTI4LjQ0NDQ0NCAxMS4zNzc3NzgtMzkuODIyMjIyIDExLjM3Nzc3OHoiLz48L3N2Zz4=" parent="1" vertex="1">
          <mxGeometry x="573" y="346.58000000000004" width="54" height="54" as="geometry" />
        </mxCell>
        <mxCell id="TGPx2V8O0Z7DVdudsgvW-20" value="" style="rounded=1;whiteSpace=wrap;html=1;strokeColor=default;fillColor=#E7E5ED;" parent="1" vertex="1">
          <mxGeometry x="299" y="448.58000000000004" width="602" height="176" as="geometry" />
        </mxCell>
        <mxCell id="TGPx2V8O0Z7DVdudsgvW-26" value="&lt;span style=&quot;font-size: 28px;&quot;&gt;1.客户端登录请求&lt;/span&gt;" style="text;html=1;strokeColor=none;fillColor=none;align=center;verticalAlign=middle;whiteSpace=wrap;rounded=0;fontColor=#4A919B;" parent="1" vertex="1">
          <mxGeometry x="338.15999999999997" y="358.58000000000004" width="230" height="30" as="geometry" />
        </mxCell>
        <mxCell id="TGPx2V8O0Z7DVdudsgvW-31" value="" style="shape=image;verticalLabelPosition=bottom;verticalAlign=top;imageAspect=0;aspect=fixed;image=data:image/svg+xml,PHN2ZyB4bWxuczp4bGluaz0iaHR0cDovL3d3dy53My5vcmcvMTk5OS94bGluayIgeG1sbnM9Imh0dHA6Ly93d3cudzMub3JnLzIwMDAvc3ZnIiBoZWlnaHQ9IjIwMCIgd2lkdGg9IjIwMCIgdmVyc2lvbj0iMS4xIiB2aWV3Qm94PSIwIDAgMTAyNCAxMDI0IiBjbGFzcz0iaWNvbiI+PHBhdGggZmlsbD0iIzUzNUU4MCIgZD0iTTMxMi44ODg4ODkgOTk1LjU1NTU1NmMtMTcuMDY2NjY3IDAtMjguNDQ0NDQ0LTUuNjg4ODg5LTM5LjgyMjIyMi0xNy4wNjY2NjctMjIuNzU1NTU2LTIyLjc1NTU1Ni0xNy4wNjY2NjctNTYuODg4ODg5IDUuNjg4ODg5LTc5LjY0NDQ0NWwzNjQuMDg4ODg4LTMyOS45NTU1NTVjMTEuMzc3Nzc4LTExLjM3Nzc3OCAxNy4wNjY2NjctMjIuNzU1NTU2IDE3LjA2NjY2Ny0zNC4xMzMzMzMgMC0xMS4zNzc3NzgtNS42ODg4ODktMjIuNzU1NTU2LTE3LjA2NjY2Ny0zNC4xMzMzMzRMMjczLjA2NjY2NyAxODcuNzMzMzMzYy0yMi43NTU1NTYtMjIuNzU1NTU2LTI4LjQ0NDQ0NC01Ni44ODg4ODktNS42ODg4ODktNzkuNjQ0NDQ0IDIyLjc1NTU1Ni0yMi43NTU1NTYgNTYuODg4ODg5LTI4LjQ0NDQ0NCA3OS42NDQ0NDQtNS42ODg4ODlsMzY0LjA4ODg4OSAzMTIuODg4ODg5YzM0LjEzMzMzMyAyOC40NDQ0NDQgNTYuODg4ODg5IDczLjk1NTU1NiA1Ni44ODg4ODkgMTE5LjQ2NjY2N3MtMTcuMDY2NjY3IDg1LjMzMzMzMy01MS4yIDExOS40NjY2NjZsLTM2NC4wODg4ODkgMzI5Ljk1NTU1NmMtMTEuMzc3Nzc4IDUuNjg4ODg5LTI4LjQ0NDQ0NCAxMS4zNzc3NzgtMzkuODIyMjIyIDExLjM3Nzc3OHoiLz48L3N2Zz4=;flipH=1;" parent="1" vertex="1">
          <mxGeometry x="566" y="506.58000000000004" width="55" height="55" as="geometry" />
        </mxCell>
        <mxCell id="TGPx2V8O0Z7DVdudsgvW-49" value="" style="rounded=1;whiteSpace=wrap;html=1;strokeColor=default;fillColor=#FCFBF8;" parent="1" vertex="1">
          <mxGeometry x="299" y="624.58" width="602" height="152" as="geometry" />
        </mxCell>
        <mxCell id="TGPx2V8O0Z7DVdudsgvW-51" value="" style="shape=image;verticalLabelPosition=bottom;verticalAlign=top;imageAspect=0;aspect=fixed;image=data:image/svg+xml,PHN2ZyB4bWxuczp4bGluaz0iaHR0cDovL3d3dy53My5vcmcvMTk5OS94bGluayIgeG1sbnM9Imh0dHA6Ly93d3cudzMub3JnLzIwMDAvc3ZnIiBoZWlnaHQ9IjIwMCIgd2lkdGg9IjIwMCIgdmVyc2lvbj0iMS4xIiB2aWV3Qm94PSIwIDAgMTAyNCAxMDI0IiBjbGFzcz0iaWNvbiI+PHBhdGggZmlsbD0iIzRBOTE5QiIgZD0iTTMxMi44ODg4ODkgOTk1LjU1NTU1NmMtMTcuMDY2NjY3IDAtMjguNDQ0NDQ0LTUuNjg4ODg5LTM5LjgyMjIyMi0xNy4wNjY2NjctMjIuNzU1NTU2LTIyLjc1NTU1Ni0xNy4wNjY2NjctNTYuODg4ODg5IDUuNjg4ODg5LTc5LjY0NDQ0NWwzNjQuMDg4ODg4LTMyOS45NTU1NTVjMTEuMzc3Nzc4LTExLjM3Nzc3OCAxNy4wNjY2NjctMjIuNzU1NTU2IDE3LjA2NjY2Ny0zNC4xMzMzMzMgMC0xMS4zNzc3NzgtNS42ODg4ODktMjIuNzU1NTU2LTE3LjA2NjY2Ny0zNC4xMzMzMzRMMjczLjA2NjY2NyAxODcuNzMzMzMzYy0yMi43NTU1NTYtMjIuNzU1NTU2LTI4LjQ0NDQ0NC01Ni44ODg4ODktNS42ODg4ODktNzkuNjQ0NDQ0IDIyLjc1NTU1Ni0yMi43NTU1NTYgNTYuODg4ODg5LTI4LjQ0NDQ0NCA3OS42NDQ0NDQtNS42ODg4ODlsMzY0LjA4ODg4OSAzMTIuODg4ODg5YzM0LjEzMzMzMyAyOC40NDQ0NDQgNTYuODg4ODg5IDczLjk1NTU1NiA1Ni44ODg4ODkgMTE5LjQ2NjY2N3MtMTcuMDY2NjY3IDg1LjMzMzMzMy01MS4yIDExOS40NjY2NjZsLTM2NC4wODg4ODkgMzI5Ljk1NTU1NmMtMTEuMzc3Nzc4IDUuNjg4ODg5LTI4LjQ0NDQ0NCAxMS4zNzc3NzgtMzkuODIyMjIyIDExLjM3Nzc3OHoiLz48L3N2Zz4=" parent="1" vertex="1">
          <mxGeometry x="568.16" y="673.58" width="54" height="54" as="geometry" />
        </mxCell>
        <mxCell id="TGPx2V8O0Z7DVdudsgvW-52" value="&lt;font style=&quot;font-size: 21px;&quot;&gt;客户端账号密码&lt;/font&gt;" style="text;html=1;strokeColor=none;fillColor=none;align=center;verticalAlign=middle;whiteSpace=wrap;rounded=0;fontColor=#4A919B;" parent="1" vertex="1">
          <mxGeometry x="63" y="667.58" width="170" height="30" as="geometry" />
        </mxCell>
        <mxCell id="TGPx2V8O0Z7DVdudsgvW-53" value="" style="shape=image;verticalLabelPosition=bottom;verticalAlign=top;imageAspect=0;aspect=fixed;image=data:image/svg+xml,PHN2ZyB4bWxuczp4bGluaz0iaHR0cDovL3d3dy53My5vcmcvMTk5OS94bGluayIgeG1sbnM9Imh0dHA6Ly93d3cudzMub3JnLzIwMDAvc3ZnIiBoZWlnaHQ9IjIwMCIgd2lkdGg9IjIwMCIgdmVyc2lvbj0iMS4xIiB2aWV3Qm94PSIwIDAgMTAyNCAxMDI0IiBjbGFzcz0iaWNvbiI+PHBhdGggZmlsbD0iIzRBOTE5QiIgZD0iTTQyMS4zNzYgNDgxLjI4czExNy4yNDggMjQuNTc2IDE3NS4xMDQtOC43MDRjMCAwLTg5LjYgNzAuMTQ0LTg5LjYgMTY2LjQgMC41MTItMC41MTItOC4xOTItMTIxLjM0NC04NS41MDQtMTU3LjY5NnpNNDM4Ljc4NCA5NjkuMjE2czY4LjYwOCA2LjY1NiA2OC42MDgtODAuODk2YzAgMCAzLjA3MiA4OC41NzYgNjUuMDI0IDc4LjMzNiAwIDAuNTEyLTUwLjY4OCAyMi4wMTYtMTMzLjYzMiAyLjU2ek0xNjEuMjggMjM4LjA4cy0zMC4yMDggNjUuNTM2IDExLjI2NCA5MS42NDhjMCAwLTY3LjA3Mi0xNy40MDgtODEuNDA4IDM3LjM3NiAwIDAgOC43MDQtODIuOTQ0IDcwLjE0NC0xMjkuMDI0ek04NTcuNiAyMjcuMzI4czQ5LjE1MiA1MC4xNzYgMS4wMjQgODEuNDA4YzAgMCA1OC44OC0xOC40MzIgNjYuNTYgMzYuMzUyIDAgMCA1LjEyLTY5LjYzMi02Ny41ODQtMTE3Ljc2eiIvPjxwYXRoIGZpbGw9IiM0QTkxOUIiIGQ9Ik00NDMuMzkyIDk3MC43NTJjLTUuNjMyIDAtMTAuNzUyLTEuMDI0LTE1LjM2LTMuMDcybC0yNzAuODQ4LTE1Ny4xODQtMS41MzYtMS4wMjRzLTEuMDI0LTEuMDI0LTQuNjA4LTIuNTZjLTUxLjItMjkuMTg0LTYyLjk3Ni05NC4yMDgtNjUuNTM2LTEyMC44MzJWMzg2LjU2YzAtMy4wNzIgMC41MTItNy4xNjggMS4wMjQtMTEuMjY0bDAuNTEyLTMuNTg0IDEuMDI0LTIuNTZjMTkuNDU2LTUwLjY4OCA3Ni44LTUxLjIgMTAzLjkzNi00NC4wMzJsLTEuNTM2IDUuNjMyIDQuMDk2LTYuMTQ0TDQ3Ni4xNiA0ODYuNGwxOC45NDQgMzcuODg4YzIwLjk5MiAzNi44NjQgMjkuMTg0IDc3LjgyNCAzMi43NjggOTkuODR2MjU4LjA0OGMtNC42MDggNTYuMzItMzYuODY0IDc2LjI4OC01NS44MDggODIuOTQ0LTEuMDI0IDAuNTEyLTE1LjM2IDUuNjMyLTI4LjY3MiA1LjYzMnogbS0yNjIuMTQ0LTE5Ni4wOTZsMjYzLjE2OCAxNTIuNTc2YzEyLjI4OC0wLjUxMiAzNi44NjQtNi42NTYgNDAuNDQ4LTQ4LjEyOHYtMjUwLjM2OGMtNC42MDgtMzEuNzQ0LTIwLjk5Mi0xMDMuOTM2LTcyLjE5Mi0xMjhMMzIyLjU2IDQ0NS40NGwxLjUzNiAzLjA3Mi0xNDIuMzM2LTgyLjQzMmMtMi4wNDgtMC41MTItNDAuNDQ4LTkuMjE2LTUyLjczNiAxNS44NzItMC41MTIgMi41Ni0wLjUxMiA0LjYwOC0wLjUxMiA2LjE0NHYyOTQuNGMxLjUzNiAxNi44OTYgOS43MjggNjcuMDcyIDQzLjUyIDg2LjUyOCAzLjU4NCAyLjA0OCA2LjY1NiA0LjA5NiA5LjIxNiA1LjYzMnoiLz48cGF0aCBmaWxsPSIjNEE5MTlCIiBkPSJNODM3LjYzMiAyMTIuOTkyYzYuNjU2IDQuMDk2IDEyLjggNy4xNjggMTguNDMyIDEwLjc1MmwxLjUzNiAxLjAyNCAxLjUzNiAxLjUzNmM1LjEyIDQuMDk2IDEwLjc1MiA5LjIxNiAxNi4zODQgMTUuMzYgNi4xNDQgMTEuNzc2IDUuNjMyIDMzLjI4IDQuNjA4IDQ5LjE1Mi0xLjAyNCAxMi4yODgtNi42NTYgMzAuMjA4LTI2LjYyNCA0NC41NDRsLTEuMDI0IDAuNTEyLTI0Ny44MDggMTU2LjY3MmMtMjYuNjI0IDE0LjMzNi02Mi45NzYgMTguNDMyLTk2LjI1NiAxOC40MzItNDAuOTYgMC03Ny44MjQtNi42NTYtODkuMDg4LTguNzA0bC0zLjA3Mi0wLjUxMi0yNDUuMjQ4LTE0Mi4zMzZjLTM5LjQyNC0yOS42OTYtMjguMTYtODUuNTA0LTE1LjM2LTExMy42NjRsMi41Ni02LjE0NCAyNjMuNjgtMTY2LjkxMmMyOS4xODQtMTQuMzM2IDEwNC40NDgtNDMuMDA4IDE3My4wNTYtMS4wMjQgMy41ODQgMi41NiA1OC4zNjggMzQuMzA0IDExOS4yOTYgNjkuNjMyTTQzMS42MTYgNDYwLjhjNDAuNDQ4IDcuMTY4IDExNC4xNzYgMTMuODI0IDE1Mi41NzYtNi4xNDRsMjQ0LjczNi0xNTUuMTM2YzcuMTY4LTUuNjMyIDguMTkyLTEwLjI0IDguNzA0LTEyLjggMS4wMjQtMTEuMjY0LTkuNzI4LTI2LjYyNC0xNS4zNi0zMi43NjgtNTUuODA4LTMyLjI1Ni0yNDMuNzEyLTE0MS4zMTItMjUwLjM2OC0xNDUuNDA4LTQ5LjY2NC0zMC43Mi0xMDcuMDA4LTkuMjE2LTEzMC4wNDggMi41NkwxOTIuNTEyIDI2OC44Yy00LjA5NiAxMi4yODgtMTIuMjg4IDQyLjQ5NiAzLjU4NCA1NS44MDhsMjM1LjUyIDEzNi4xOTJ6Ii8+PHBhdGggZmlsbD0iIzRBOTE5QiIgZD0iTTgzMS40ODggMjk5LjAwOGM0LjA5Ni0xLjAyNCAzOC40LTExLjI2NCA2Ni4wNDggNi4xNDQgNy4xNjggNC42MDggMTcuOTIgMTEuNzc2IDI0LjA2NCAyNC41NzYgMS4wMjQgNS42MzIgNC4wOTYgMTAuNzUyIDQuNjA4IDE2Ljg5NnYyLjA0OGwtMS4wMjQgMzIzLjA3MmMtNS4xMiAzNS4zMjgtMjIuNTI4IDkxLjY0OC03Ny4zMTIgMTI1LjQ0bC01LjEyIDMuNTg0aC0xLjAyNGwtMjYyLjE0NCAxNjUuODg4LTQuNjA4IDAuNTEyYy00LjA5NiAwLjUxMi04LjcwNCAxLjAyNC0xMi44IDEuMDI0LTE1Ljg3MiAwLTMwLjIwOC01LjEyLTQxLjk4NC0xNC44NDgtMjQuNTc2LTIwLjQ4LTMyLjc2OC01NS44MDgtMzUuMzI4LTczLjcyOGwtMS4wMjQtMjUyLjkyOGgxLjUzNmM2LjE0NC05Ni43NjggODguNTc2LTE2NC44NjQgOTYuNzY4LTE3MS4wMDhsLTAuNTEyLTAuNTEyTDgyOS40NCAyOTkuNTJtLTMwMS4wNTYgNTY3LjgwOGMwLjUxMiAxMC4yNCA1LjEyIDQxLjQ3MiAxOS45NjggNTMuNzYgMy4wNzIgMi41NiA3LjY4IDUuNjMyIDE2LjM4NCA1LjEybDI2NC43MDQtMTY3LjkzNmM1Ni4zMi0zOC40IDUzLjc2LTExNS43MTIgNTMuNzYtMTE2LjIyNGwtMC41MTItMzIuMjU2IDEuMDI0LTI1MC4zNjhoLTAuNTEyYy0xLjUzNi0xMi44LTcuMTY4LTE2LjM4NC04LjcwNC0xNy40MDgtOC43MDQtNS42MzItMjMuNTUyLTMuMDcyLTI4LjY3Mi0yLjA0OGwtMjM1LjUyIDE0OC45OTJjLTEuMDI0IDAuNTEyLTgwLjg5NiA2NS4wMjQtODAuODk2IDE0OS41MDRoLTEuNTM2bDAuNTEyIDIyOC44NjR6TTQzNS4yIDI2NC4xOTJjMCAyNy42NDggMzEuNzQ0IDUwLjE3NiA3MS4xNjggNTAuMTc2czcxLjE2OC0yMi41MjggNzEuMTY4LTUwLjE3Ni0zMS43NDQtNTAuMTc2LTcxLjE2OC01MC4xNzZTNDM1LjIgMjM2LjU0NCA0MzUuMiAyNjQuMTkyeiIvPjxwYXRoIGZpbGw9IiM0QTkxOUIiIGQ9Ik02NjMuNTUyIDc4Mi44NDhjMCAzMC43Mi0yMi41MjggNjcuMDcyLTQ5LjY2NCA4MC4zODQtMjcuNjQ4IDEzLjgyNC01MC4xNzYtMC41MTItNTAuMTc2LTMxLjIzMnMyMi41MjgtNjcuMDcyIDUwLjE3Ni04MC4zODRjMjcuMTM2LTEzLjgyNCA0OS42NjQgMCA0OS42NjQgMzEuMjMyek03NjAuMzIgNjAyLjYyNGMwIDMwLjcyLTIyLjUyOCA2Ny4wNzItNDkuNjY0IDgwLjM4NC0yNy42NDggMTMuODI0LTQ5LjY2NC0wLjUxMi00OS42NjQtMzEuMjMyczIyLjUyOC02Ny4wNzIgNDkuNjY0LTgwLjM4NGMyNy4xMzYtMTMuODI0IDQ5LjY2NCAwLjUxMiA0OS42NjQgMzEuMjMyek04NjcuODQgNDI4LjAzMmMwIDMwLjcyLTIyLjUyOCA2Ny4wNzItNDkuNjY0IDgwLjM4NC0yNy42NDggMTMuODI0LTUwLjE3Ni0wLjUxMi01MC4xNzYtMzEuMjMyczIyLjUyOC02Ny4wNzIgNTAuMTc2LTgwLjM4NGMyNy4xMzYtMTMuODI0IDQ5LjY2NCAwIDQ5LjY2NCAzMS4yMzJ6TTI3MC44NDggNTM4LjExMmMwIDMwLjcyLTIyLjAxNiA0MS45ODQtNDguNjQgMjQuNTc2LTI3LjEzNi0xNi44OTYtNDguNjQtNTUuODA4LTQ4LjY0LTg2LjUyOCAwLTMwLjcyIDIyLjAxNi00MS45ODQgNDguNjQtMjQuNTc2IDI2LjYyNCAxNi44OTYgNDguNjQgNTUuODA4IDQ4LjY0IDg2LjUyOHpNNDMyLjEyOCA4MjMuMjk2YzAgMzAuNzItMjIuMDE2IDQxLjk4NC00OC42NCAyNC41NzYtMjYuNjI0LTE3LjQwOC00OC42NC01NS44MDgtNDguNjQtODYuNTI4IDAtMzAuNzIgMjIuMDE2LTQxLjk4NCA0OC42NC0yNC41NzYgMjYuNjI0IDE2Ljg5NiA0OC42NCA1NS44MDggNDguNjQgODYuNTI4eiIvPjwvc3ZnPg==" parent="1" vertex="1">
          <mxGeometry x="107" y="606.58" width="56" height="56" as="geometry" />
        </mxCell>
        <mxCell id="TGPx2V8O0Z7DVdudsgvW-44" value="" style="shape=image;verticalLabelPosition=bottom;verticalAlign=top;imageAspect=0;aspect=fixed;image=data:image/svg+xml,PHN2ZyB4bWxuczp4bGluaz0iaHR0cDovL3d3dy53My5vcmcvMTk5OS94bGluayIgeG1sbnM9Imh0dHA6Ly93d3cudzMub3JnLzIwMDAvc3ZnIiBoZWlnaHQ9IjIwMCIgd2lkdGg9IjIwMCIgdmVyc2lvbj0iMS4xIiB2aWV3Qm94PSIwIDAgMTAyNCAxMDI0IiBjbGFzcz0iaWNvbiI+PHBhdGggZmlsbD0iIzUzNUU4MCIgZD0iTTQ0Ni42ODA0MDcgNTEzLjcwNDcyNmgxMzYuMDc4NzM5djUxMC4yOTUyNzRoLTEzNi4wNzg3Mzl6Ii8+PHBhdGggZmlsbD0iIzUzNUU4MCIgZD0iTTUzMi40MTAwMTMgNjY2Ljc5MzMwOGgxMTUuNjY2OTI4djEzNi4wNzg3NEg1MzIuNDEwMDEzek01MzIuNDEwMDEzIDg0My42OTU2N2gxNDkuNjg2NjEzdjEzNi4wNzg3NEg1MzIuNDEwMDEzek01MTEuOTk4MjAyIDU4NS4xNDYwNjVBMjkwLjUyODEwOSAyOTAuNTI4MTA5IDAgMCAxIDIxOS40Mjg5MTIgMjkyLjU3Njc3NSAyOTAuNTI4MTA5IDI5MC41MjgxMDkgMCAwIDEgNTExLjk5ODIwMiAwLjAwNzQ4NGEyOTAuNTI4MTA5IDI5MC41MjgxMDkgMCAwIDEgMjkyLjU2OTI5IDI5Mi41NjkyOTEgMjkwLjUyODEwOSAyOTAuNTI4MTA5IDAgMCAxLTI5Mi41NjkyOSAyOTIuNTY5Mjl6IG0wLTQ0OS4wNTk4NDFBMTUzLjc2ODk3NiAxNTMuNzY4OTc2IDAgMCAwIDM1NS41MDc2NTEgMjkyLjU3Njc3NWExNTMuNzY4OTc2IDE1My43Njg5NzYgMCAwIDAgMTU2LjQ5MDU1MSAxNTYuNDkwNTUgMTUzLjc2ODk3NiAxNTMuNzY4OTc2IDAgMCAwIDE1Ni40OTA1NS0xNTYuNDkwNTVBMTUzLjc2ODk3NiAxNTMuNzY4OTc2IDAgMCAwIDUxMS45OTgyMDIgMTM2LjA4NjIyNHoiLz48L3N2Zz4=;strokeColor=#E6D7C2;fontSize=28;fontColor=#808080;fillColor=#E6D7C2;" parent="1" vertex="1">
          <mxGeometry x="107" y="477.58000000000027" width="52" height="52" as="geometry" />
        </mxCell>
        <mxCell id="TGPx2V8O0Z7DVdudsgvW-58" value="" style="shape=flexArrow;endArrow=classic;html=1;rounded=0;fontSize=28;fontColor=#808080;width=9.18032786885246;endSize=4.6;strokeColor=none;fillColor=#535E80;exitX=0.021;exitY=0.411;exitDx=0;exitDy=0;exitPerimeter=0;" parent="1" edge="1">
          <mxGeometry width="50" height="50" relative="1" as="geometry">
            <mxPoint x="316.0240000000001" y="506.58000000000004" as="sourcePoint" />
            <mxPoint x="273" y="506.59000000000003" as="targetPoint" />
          </mxGeometry>
        </mxCell>
        <mxCell id="TGPx2V8O0Z7DVdudsgvW-60" value="" style="shape=image;verticalLabelPosition=bottom;labelBackgroundColor=default;verticalAlign=top;aspect=fixed;imageAspect=0;image=data:image/svg+xml,PHN2ZyB4bWxuczp4bGluaz0iaHR0cDovL3d3dy53My5vcmcvMTk5OS94bGluayIgeG1sbnM9Imh0dHA6Ly93d3cudzMub3JnLzIwMDAvc3ZnIiBoZWlnaHQ9IjIwMCIgd2lkdGg9IjIwMCIgdmVyc2lvbj0iMS4xIiB2aWV3Qm94PSIwIDAgMTAyNCAxMDI0IiBjbGFzcz0iaWNvbiI+PHBhdGggZmlsbD0iIzUzNUU4MCIgZD0iTTkyNS42OTYgMzg0cTE5LjQ1NiAwIDM3LjM3NiA3LjY4dDMwLjcyIDIwLjQ4IDIwLjQ4IDMwLjcyIDcuNjggMzcuMzc2cTAgMjAuNDgtNy42OCAzNy44ODh0LTIwLjQ4IDMwLjIwOC0zMC43MiAyMC40OC0zNy4zNzYgNy42OGwtMjg3Ljc0NCAwIDAgMjg3Ljc0NHEwIDIwLjQ4LTcuNjggMzcuODg4dC0yMC40OCAzMC4yMDgtMzAuNzIgMjAuNDgtMzcuMzc2IDcuNjhxLTIwLjQ4IDAtMzcuODg4LTcuNjh0LTMwLjIwOC0yMC40OC0yMC40OC0zMC4yMDgtNy42OC0zNy44ODhsMC0yODcuNzQ0LTI4Ny43NDQgMHEtMjAuNDggMC0zNy44ODgtNy42OHQtMzAuMjA4LTIwLjQ4LTIwLjQ4LTMwLjIwOC03LjY4LTM3Ljg4OHEwLTE5LjQ1NiA3LjY4LTM3LjM3NnQyMC40OC0zMC43MiAzMC4yMDgtMjAuNDggMzcuODg4LTcuNjhsMjg3Ljc0NCAwIDAtMjg3Ljc0NHEwLTE5LjQ1NiA3LjY4LTM3LjM3NnQyMC40OC0zMC43MiAzMC4yMDgtMjAuNDggMzcuODg4LTcuNjhxMzkuOTM2IDAgNjguMDk2IDI4LjE2dDI4LjE2IDY4LjA5NmwwIDI4Ny43NDQgMjg3Ljc0NCAweiIvPjwvc3ZnPg==;" parent="1" vertex="1">
          <mxGeometry x="118" y="553.58" width="30" height="30" as="geometry" />
        </mxCell>
        <mxCell id="TGPx2V8O0Z7DVdudsgvW-61" value="&lt;font color=&quot;#535e80&quot; style=&quot;font-size: 21px;&quot;&gt;服务器公钥&lt;/font&gt;" style="text;html=1;strokeColor=none;fillColor=none;align=center;verticalAlign=middle;whiteSpace=wrap;rounded=0;fontColor=#4A919B;" parent="1" vertex="1">
          <mxGeometry x="161" y="492.2400000000001" width="117" height="29" as="geometry" />
        </mxCell>
        <mxCell id="TGPx2V8O0Z7DVdudsgvW-62" value="" style="shape=flexArrow;endArrow=classic;html=1;rounded=1;fontSize=28;fontColor=#808080;width=9.18032786885246;endSize=4.6;strokeColor=none;fillColor=#4A919B;" parent="1" edge="1">
          <mxGeometry width="50" height="50" relative="1" as="geometry">
            <mxPoint x="135.00000000000006" y="705.5799999999998" as="sourcePoint" />
            <mxPoint x="178.16000000000003" y="737.58" as="targetPoint" />
            <Array as="points">
              <mxPoint x="135.1599999999999" y="737.58" />
            </Array>
          </mxGeometry>
        </mxCell>
        <mxCell id="TGPx2V8O0Z7DVdudsgvW-63" value="&lt;font style=&quot;font-size: 28px;&quot;&gt;加密后的账号密码&lt;/font&gt;" style="text;html=1;strokeColor=none;fillColor=none;align=center;verticalAlign=middle;whiteSpace=wrap;rounded=0;fontColor=#4A919B;" parent="1" vertex="1">
          <mxGeometry x="344.15999999999997" y="683.08" width="230" height="30" as="geometry" />
        </mxCell>
        <mxCell id="TGPx2V8O0Z7DVdudsgvW-65" value="" style="shape=image;verticalLabelPosition=bottom;labelBackgroundColor=default;verticalAlign=top;aspect=fixed;imageAspect=0;image=data:image/svg+xml,PHN2ZyB4bWxuczp4bGluaz0iaHR0cDovL3d3dy53My5vcmcvMTk5OS94bGluayIgeG1sbnM9Imh0dHA6Ly93d3cudzMub3JnLzIwMDAvc3ZnIiBoZWlnaHQ9IjIwMCIgd2lkdGg9IjIwMCIgdmVyc2lvbj0iMS4xIiB2aWV3Qm94PSIwIDAgMTAyNCAxMDI0IiBjbGFzcz0iaWNvbiI+PHBhdGggZmlsbD0iIzRBOTE5QiIgZD0iTTU2Mi4zOTMyOCAyOTMuNjk2YTMyIDMyIDAgMCAxLTE0LjMzNiA2Mi40IDE2MCAxNjAgMCAwIDAtMTg1LjA1NiAyMTQuMzM2IDMyIDMyIDAgMSAxLTU5LjU4NCAyMy4zMjggMjI0IDIyNCAwIDAgMSAyNTguOTc2LTMwMC4wNjR6IG0tMTAwLjI1NiA0MzYuNzA0YTMyIDMyIDAgMCAxIDE0LjIwOC02Mi40IDE2MCAxNjAgMCAwIDAgMTg4LjIyNC0yMDQuNDggMzIgMzIgMCAxIDEgNjAuOTkyLTE5LjMyOCAyMjQgMjI0IDAgMCAxLTI2My40NTYgMjg2LjIwOHoiLz48cGF0aCBmaWxsPSIjNEE5MTlCIiBkPSJNMjEzLjQ2NTI4IDY3Ni4wOTZhMzIgMzIgMCAxIDEtNDIuMzM2IDQ4QzEzMi4wNTcyOCA2ODkuNiA3Ny40OTcyOCA2MjUuNTY4IDYuNDU3MjggNTMxLjI2NGEzMiAzMiAwIDAgMS0wLjk5Mi0zNy4xMkMxNTQuMTY5MjggMjcyLjcwNCAzMjMuMjI1MjggMTYwIDUxMi4wMjUyOCAxNjBjNTIuNzA0IDAgMTA0LjA5NiA4LjgzMiAxNTQuMDE2IDI2LjQ5NmEzMiAzMiAwIDAgMS0yMS4zNDQgNjAuMzUyQTM5NC43NTIgMzk0Ljc1MiAwIDAgMCA1MTIuMDI1MjggMjI0Yy0xNTkuNTg0IDAtMzA2LjI0IDk0LjQ2NC00NDAuNTc2IDI4Ny4wNCA2MS44MjQgODEuMDU2IDEwOS40NCAxMzYuMjg4IDE0Mi4wNDggMTY1LjA1NnogbTU5OS44MDgtMzI1Ljc2YTMyIDMyIDAgMCAxIDQyLjU5Mi00Ny44MDhjMzguMzY4IDM0LjI0IDkxLjk2OCA5Ny4zNzYgMTYxLjcyOCAxOTAuMjRhMzIgMzIgMCAwIDEgMC45OTIgMzcuMDg4Qzg2OS44ODEyOCA3NTEuMjk2IDcwMC44MjUyOCA4NjQgNTEyLjAyNTI4IDg2NGMtMzcuODI0IDAtNzQuOTQ0LTQuNTQ0LTExMS4zNi0xMy42NjRhMzIgMzIgMCAwIDEgMTUuNDg4LTYyLjA4YzMxLjM2IDcuODQgNjMuMjY0IDExLjc0NCA5NS44NzIgMTEuNzQ0IDE1OS41ODQgMCAzMDYuMjQtOTQuNDY0IDQ0MC41NzYtMjg3LjA0LTYwLjY0LTc5LjcxMi0xMDcuMzI4LTEzNC4xMTItMTM5LjMyOC0xNjIuNjU2ek04MjMuOTI5MjggMTIyLjkxMmEzMiAzMiAwIDAgMSA0OC4xOTIgNDIuMTc2bC02NzIgNzY4YTMyIDMyIDAgMCAxLTQ4LjE5Mi00Mi4xNzZsNjcyLTc2OHoiLz48L3N2Zz4=;" parent="1" vertex="1">
          <mxGeometry x="307.15999999999997" y="680.08" width="41" height="41" as="geometry" />
        </mxCell>
        <mxCell id="TGPx2V8O0Z7DVdudsgvW-80" value="" style="endArrow=none;dashed=1;html=1;dashPattern=1 3;strokeWidth=2;rounded=0;fontSize=21;fontColor=#4A919B;fillColor=#535E80;" parent="1" edge="1">
          <mxGeometry width="50" height="50" relative="1" as="geometry">
            <mxPoint x="67" y="340.58000000000004" as="sourcePoint" />
            <mxPoint x="297" y="341.58000000000004" as="targetPoint" />
          </mxGeometry>
        </mxCell>
        <mxCell id="TGPx2V8O0Z7DVdudsgvW-81" value="" style="endArrow=none;dashed=1;html=1;dashPattern=1 3;strokeWidth=2;rounded=0;fontSize=21;fontColor=#4A919B;fillColor=#535E80;" parent="1" edge="1">
          <mxGeometry width="50" height="50" relative="1" as="geometry">
            <mxPoint x="67" y="629.58" as="sourcePoint" />
            <mxPoint x="67" y="341.58000000000004" as="targetPoint" />
          </mxGeometry>
        </mxCell>
        <mxCell id="TGPx2V8O0Z7DVdudsgvW-83" value="" style="endArrow=none;dashed=1;html=1;dashPattern=1 3;strokeWidth=2;rounded=0;fontSize=21;fontColor=#4A919B;fillColor=#535E80;" parent="1" edge="1">
          <mxGeometry width="50" height="50" relative="1" as="geometry">
            <mxPoint x="70" y="629.58" as="sourcePoint" />
            <mxPoint x="103" y="629.58" as="targetPoint" />
          </mxGeometry>
        </mxCell>
        <mxCell id="TGPx2V8O0Z7DVdudsgvW-84" value="" style="endArrow=none;dashed=1;html=1;dashPattern=1 3;strokeWidth=2;rounded=0;fontSize=21;fontColor=#4A919B;fillColor=#535E80;" parent="1" edge="1">
          <mxGeometry width="50" height="50" relative="1" as="geometry">
            <mxPoint x="67" y="502.58000000000027" as="sourcePoint" />
            <mxPoint x="100" y="502.58000000000004" as="targetPoint" />
          </mxGeometry>
        </mxCell>
        <mxCell id="TGPx2V8O0Z7DVdudsgvW-85" value="&lt;span style=&quot;font-size: 21px;&quot;&gt;客户端账号密码&lt;/span&gt;" style="text;html=1;strokeColor=none;fillColor=none;align=center;verticalAlign=middle;whiteSpace=wrap;rounded=0;fontColor=#4A919B;" parent="1" vertex="1">
          <mxGeometry x="967" y="709.58" width="170" height="30" as="geometry" />
        </mxCell>
        <mxCell id="TGPx2V8O0Z7DVdudsgvW-86" value="" style="shape=image;verticalLabelPosition=bottom;verticalAlign=top;imageAspect=0;aspect=fixed;image=data:image/svg+xml,PHN2ZyB4bWxuczp4bGluaz0iaHR0cDovL3d3dy53My5vcmcvMTk5OS94bGluayIgeG1sbnM9Imh0dHA6Ly93d3cudzMub3JnLzIwMDAvc3ZnIiBoZWlnaHQ9IjIwMCIgd2lkdGg9IjIwMCIgdmVyc2lvbj0iMS4xIiB2aWV3Qm94PSIwIDAgMTAyNCAxMDI0IiBjbGFzcz0iaWNvbiI+PHBhdGggZmlsbD0iIzRBOTE5QiIgZD0iTTQyMS4zNzYgNDgxLjI4czExNy4yNDggMjQuNTc2IDE3NS4xMDQtOC43MDRjMCAwLTg5LjYgNzAuMTQ0LTg5LjYgMTY2LjQgMC41MTItMC41MTItOC4xOTItMTIxLjM0NC04NS41MDQtMTU3LjY5NnpNNDM4Ljc4NCA5NjkuMjE2czY4LjYwOCA2LjY1NiA2OC42MDgtODAuODk2YzAgMCAzLjA3MiA4OC41NzYgNjUuMDI0IDc4LjMzNiAwIDAuNTEyLTUwLjY4OCAyMi4wMTYtMTMzLjYzMiAyLjU2ek0xNjEuMjggMjM4LjA4cy0zMC4yMDggNjUuNTM2IDExLjI2NCA5MS42NDhjMCAwLTY3LjA3Mi0xNy40MDgtODEuNDA4IDM3LjM3NiAwIDAgOC43MDQtODIuOTQ0IDcwLjE0NC0xMjkuMDI0ek04NTcuNiAyMjcuMzI4czQ5LjE1MiA1MC4xNzYgMS4wMjQgODEuNDA4YzAgMCA1OC44OC0xOC40MzIgNjYuNTYgMzYuMzUyIDAgMCA1LjEyLTY5LjYzMi02Ny41ODQtMTE3Ljc2eiIvPjxwYXRoIGZpbGw9IiM0QTkxOUIiIGQ9Ik00NDMuMzkyIDk3MC43NTJjLTUuNjMyIDAtMTAuNzUyLTEuMDI0LTE1LjM2LTMuMDcybC0yNzAuODQ4LTE1Ny4xODQtMS41MzYtMS4wMjRzLTEuMDI0LTEuMDI0LTQuNjA4LTIuNTZjLTUxLjItMjkuMTg0LTYyLjk3Ni05NC4yMDgtNjUuNTM2LTEyMC44MzJWMzg2LjU2YzAtMy4wNzIgMC41MTItNy4xNjggMS4wMjQtMTEuMjY0bDAuNTEyLTMuNTg0IDEuMDI0LTIuNTZjMTkuNDU2LTUwLjY4OCA3Ni44LTUxLjIgMTAzLjkzNi00NC4wMzJsLTEuNTM2IDUuNjMyIDQuMDk2LTYuMTQ0TDQ3Ni4xNiA0ODYuNGwxOC45NDQgMzcuODg4YzIwLjk5MiAzNi44NjQgMjkuMTg0IDc3LjgyNCAzMi43NjggOTkuODR2MjU4LjA0OGMtNC42MDggNTYuMzItMzYuODY0IDc2LjI4OC01NS44MDggODIuOTQ0LTEuMDI0IDAuNTEyLTE1LjM2IDUuNjMyLTI4LjY3MiA1LjYzMnogbS0yNjIuMTQ0LTE5Ni4wOTZsMjYzLjE2OCAxNTIuNTc2YzEyLjI4OC0wLjUxMiAzNi44NjQtNi42NTYgNDAuNDQ4LTQ4LjEyOHYtMjUwLjM2OGMtNC42MDgtMzEuNzQ0LTIwLjk5Mi0xMDMuOTM2LTcyLjE5Mi0xMjhMMzIyLjU2IDQ0NS40NGwxLjUzNiAzLjA3Mi0xNDIuMzM2LTgyLjQzMmMtMi4wNDgtMC41MTItNDAuNDQ4LTkuMjE2LTUyLjczNiAxNS44NzItMC41MTIgMi41Ni0wLjUxMiA0LjYwOC0wLjUxMiA2LjE0NHYyOTQuNGMxLjUzNiAxNi44OTYgOS43MjggNjcuMDcyIDQzLjUyIDg2LjUyOCAzLjU4NCAyLjA0OCA2LjY1NiA0LjA5NiA5LjIxNiA1LjYzMnoiLz48cGF0aCBmaWxsPSIjNEE5MTlCIiBkPSJNODM3LjYzMiAyMTIuOTkyYzYuNjU2IDQuMDk2IDEyLjggNy4xNjggMTguNDMyIDEwLjc1MmwxLjUzNiAxLjAyNCAxLjUzNiAxLjUzNmM1LjEyIDQuMDk2IDEwLjc1MiA5LjIxNiAxNi4zODQgMTUuMzYgNi4xNDQgMTEuNzc2IDUuNjMyIDMzLjI4IDQuNjA4IDQ5LjE1Mi0xLjAyNCAxMi4yODgtNi42NTYgMzAuMjA4LTI2LjYyNCA0NC41NDRsLTEuMDI0IDAuNTEyLTI0Ny44MDggMTU2LjY3MmMtMjYuNjI0IDE0LjMzNi02Mi45NzYgMTguNDMyLTk2LjI1NiAxOC40MzItNDAuOTYgMC03Ny44MjQtNi42NTYtODkuMDg4LTguNzA0bC0zLjA3Mi0wLjUxMi0yNDUuMjQ4LTE0Mi4zMzZjLTM5LjQyNC0yOS42OTYtMjguMTYtODUuNTA0LTE1LjM2LTExMy42NjRsMi41Ni02LjE0NCAyNjMuNjgtMTY2LjkxMmMyOS4xODQtMTQuMzM2IDEwNC40NDgtNDMuMDA4IDE3My4wNTYtMS4wMjQgMy41ODQgMi41NiA1OC4zNjggMzQuMzA0IDExOS4yOTYgNjkuNjMyTTQzMS42MTYgNDYwLjhjNDAuNDQ4IDcuMTY4IDExNC4xNzYgMTMuODI0IDE1Mi41NzYtNi4xNDRsMjQ0LjczNi0xNTUuMTM2YzcuMTY4LTUuNjMyIDguMTkyLTEwLjI0IDguNzA0LTEyLjggMS4wMjQtMTEuMjY0LTkuNzI4LTI2LjYyNC0xNS4zNi0zMi43NjgtNTUuODA4LTMyLjI1Ni0yNDMuNzEyLTE0MS4zMTItMjUwLjM2OC0xNDUuNDA4LTQ5LjY2NC0zMC43Mi0xMDcuMDA4LTkuMjE2LTEzMC4wNDggMi41NkwxOTIuNTEyIDI2OC44Yy00LjA5NiAxMi4yODgtMTIuMjg4IDQyLjQ5NiAzLjU4NCA1NS44MDhsMjM1LjUyIDEzNi4xOTJ6Ii8+PHBhdGggZmlsbD0iIzRBOTE5QiIgZD0iTTgzMS40ODggMjk5LjAwOGM0LjA5Ni0xLjAyNCAzOC40LTExLjI2NCA2Ni4wNDggNi4xNDQgNy4xNjggNC42MDggMTcuOTIgMTEuNzc2IDI0LjA2NCAyNC41NzYgMS4wMjQgNS42MzIgNC4wOTYgMTAuNzUyIDQuNjA4IDE2Ljg5NnYyLjA0OGwtMS4wMjQgMzIzLjA3MmMtNS4xMiAzNS4zMjgtMjIuNTI4IDkxLjY0OC03Ny4zMTIgMTI1LjQ0bC01LjEyIDMuNTg0aC0xLjAyNGwtMjYyLjE0NCAxNjUuODg4LTQuNjA4IDAuNTEyYy00LjA5NiAwLjUxMi04LjcwNCAxLjAyNC0xMi44IDEuMDI0LTE1Ljg3MiAwLTMwLjIwOC01LjEyLTQxLjk4NC0xNC44NDgtMjQuNTc2LTIwLjQ4LTMyLjc2OC01NS44MDgtMzUuMzI4LTczLjcyOGwtMS4wMjQtMjUyLjkyOGgxLjUzNmM2LjE0NC05Ni43NjggODguNTc2LTE2NC44NjQgOTYuNzY4LTE3MS4wMDhsLTAuNTEyLTAuNTEyTDgyOS40NCAyOTkuNTJtLTMwMS4wNTYgNTY3LjgwOGMwLjUxMiAxMC4yNCA1LjEyIDQxLjQ3MiAxOS45NjggNTMuNzYgMy4wNzIgMi41NiA3LjY4IDUuNjMyIDE2LjM4NCA1LjEybDI2NC43MDQtMTY3LjkzNmM1Ni4zMi0zOC40IDUzLjc2LTExNS43MTIgNTMuNzYtMTE2LjIyNGwtMC41MTItMzIuMjU2IDEuMDI0LTI1MC4zNjhoLTAuNTEyYy0xLjUzNi0xMi44LTcuMTY4LTE2LjM4NC04LjcwNC0xNy40MDgtOC43MDQtNS42MzItMjMuNTUyLTMuMDcyLTI4LjY3Mi0yLjA0OGwtMjM1LjUyIDE0OC45OTJjLTEuMDI0IDAuNTEyLTgwLjg5NiA2NS4wMjQtODAuODk2IDE0OS41MDRoLTEuNTM2bDAuNTEyIDIyOC44NjR6TTQzNS4yIDI2NC4xOTJjMCAyNy42NDggMzEuNzQ0IDUwLjE3NiA3MS4xNjggNTAuMTc2czcxLjE2OC0yMi41MjggNzEuMTY4LTUwLjE3Ni0zMS43NDQtNTAuMTc2LTcxLjE2OC01MC4xNzZTNDM1LjIgMjM2LjU0NCA0MzUuMiAyNjQuMTkyeiIvPjxwYXRoIGZpbGw9IiM0QTkxOUIiIGQ9Ik02NjMuNTUyIDc4Mi44NDhjMCAzMC43Mi0yMi41MjggNjcuMDcyLTQ5LjY2NCA4MC4zODQtMjcuNjQ4IDEzLjgyNC01MC4xNzYtMC41MTItNTAuMTc2LTMxLjIzMnMyMi41MjgtNjcuMDcyIDUwLjE3Ni04MC4zODRjMjcuMTM2LTEzLjgyNCA0OS42NjQgMCA0OS42NjQgMzEuMjMyek03NjAuMzIgNjAyLjYyNGMwIDMwLjcyLTIyLjUyOCA2Ny4wNzItNDkuNjY0IDgwLjM4NC0yNy42NDggMTMuODI0LTQ5LjY2NC0wLjUxMi00OS42NjQtMzEuMjMyczIyLjUyOC02Ny4wNzIgNDkuNjY0LTgwLjM4NGMyNy4xMzYtMTMuODI0IDQ5LjY2NCAwLjUxMiA0OS42NjQgMzEuMjMyek04NjcuODQgNDI4LjAzMmMwIDMwLjcyLTIyLjUyOCA2Ny4wNzItNDkuNjY0IDgwLjM4NC0yNy42NDggMTMuODI0LTUwLjE3Ni0wLjUxMi01MC4xNzYtMzEuMjMyczIyLjUyOC02Ny4wNzIgNTAuMTc2LTgwLjM4NGMyNy4xMzYtMTMuODI0IDQ5LjY2NCAwIDQ5LjY2NCAzMS4yMzJ6TTI3MC44NDggNTM4LjExMmMwIDMwLjcyLTIyLjAxNiA0MS45ODQtNDguNjQgMjQuNTc2LTI3LjEzNi0xNi44OTYtNDguNjQtNTUuODA4LTQ4LjY0LTg2LjUyOCAwLTMwLjcyIDIyLjAxNi00MS45ODQgNDguNjQtMjQuNTc2IDI2LjYyNCAxNi44OTYgNDguNjQgNTUuODA4IDQ4LjY0IDg2LjUyOHpNNDMyLjEyOCA4MjMuMjk2YzAgMzAuNzItMjIuMDE2IDQxLjk4NC00OC42NCAyNC41NzYtMjYuNjI0LTE3LjQwOC00OC42NC01NS44MDgtNDguNjQtODYuNTI4IDAtMzAuNzIgMjIuMDE2LTQxLjk4NCA0OC42NC0yNC41NzYgMjYuNjI0IDE2Ljg5NiA0OC42NCA1NS44MDggNDguNjQgODYuNTI4eiIvPjwvc3ZnPg==" parent="1" vertex="1">
          <mxGeometry x="920" y="696.58" width="56" height="56" as="geometry" />
        </mxCell>
        <mxCell id="TGPx2V8O0Z7DVdudsgvW-87" value="" style="shape=image;verticalLabelPosition=bottom;verticalAlign=top;imageAspect=0;aspect=fixed;image=data:image/svg+xml,PHN2ZyB4bWxuczp4bGluaz0iaHR0cDovL3d3dy53My5vcmcvMTk5OS94bGluayIgeG1sbnM9Imh0dHA6Ly93d3cudzMub3JnLzIwMDAvc3ZnIiBoZWlnaHQ9IjIwMCIgd2lkdGg9IjIwMCIgdmVyc2lvbj0iMS4xIiB2aWV3Qm94PSIwIDAgMTAyNCAxMDI0IiBjbGFzcz0iaWNvbiI+PHBhdGggZmlsbD0iIzUzNUU4MCIgZD0iTTQ0Ni42ODA0MDcgNTEzLjcwNDcyNmgxMzYuMDc4NzM5djUxMC4yOTUyNzRoLTEzNi4wNzg3Mzl6Ii8+PHBhdGggZmlsbD0iIzUzNUU4MCIgZD0iTTUzMi40MTAwMTMgNjY2Ljc5MzMwOGgxMTUuNjY2OTI4djEzNi4wNzg3NEg1MzIuNDEwMDEzek01MzIuNDEwMDEzIDg0My42OTU2N2gxNDkuNjg2NjEzdjEzNi4wNzg3NEg1MzIuNDEwMDEzek01MTEuOTk4MjAyIDU4NS4xNDYwNjVBMjkwLjUyODEwOSAyOTAuNTI4MTA5IDAgMCAxIDIxOS40Mjg5MTIgMjkyLjU3Njc3NSAyOTAuNTI4MTA5IDI5MC41MjgxMDkgMCAwIDEgNTExLjk5ODIwMiAwLjAwNzQ4NGEyOTAuNTI4MTA5IDI5MC41MjgxMDkgMCAwIDEgMjkyLjU2OTI5IDI5Mi41NjkyOTEgMjkwLjUyODEwOSAyOTAuNTI4MTA5IDAgMCAxLTI5Mi41NjkyOSAyOTIuNTY5Mjl6IG0wLTQ0OS4wNTk4NDFBMTUzLjc2ODk3NiAxNTMuNzY4OTc2IDAgMCAwIDM1NS41MDc2NTEgMjkyLjU3Njc3NWExNTMuNzY4OTc2IDE1My43Njg5NzYgMCAwIDAgMTU2LjQ5MDU1MSAxNTYuNDkwNTUgMTUzLjc2ODk3NiAxNTMuNzY4OTc2IDAgMCAwIDE1Ni40OTA1NS0xNTYuNDkwNTVBMTUzLjc2ODk3NiAxNTMuNzY4OTc2IDAgMCAwIDUxMS45OTgyMDIgMTM2LjA4NjIyNHoiLz48L3N2Zz4=;strokeColor=#E6D7C2;fontSize=28;fontColor=#808080;fillColor=#E6D7C2;" parent="1" vertex="1">
          <mxGeometry x="657.16" y="673.5800000000003" width="52" height="52" as="geometry" />
        </mxCell>
        <mxCell id="TGPx2V8O0Z7DVdudsgvW-88" value="&lt;font color=&quot;#535e80&quot; style=&quot;font-size: 21px;&quot;&gt;服务器私钥&lt;/font&gt;" style="text;html=1;strokeColor=none;fillColor=none;align=center;verticalAlign=middle;whiteSpace=wrap;rounded=0;fontColor=#4A919B;" parent="1" vertex="1">
          <mxGeometry x="721.1600000000001" y="685.08" width="117" height="29" as="geometry" />
        </mxCell>
        <mxCell id="TGPx2V8O0Z7DVdudsgvW-89" value="" style="shape=flexArrow;endArrow=classic;html=1;rounded=0;fontSize=28;fontColor=#808080;width=9.18032786885246;endSize=4.6;strokeColor=none;fillColor=#535E80;" parent="1" edge="1">
          <mxGeometry width="50" height="50" relative="1" as="geometry">
            <mxPoint x="852.47" y="699.2099999999997" as="sourcePoint" />
            <mxPoint x="879.8500000000001" y="699.2099999999997" as="targetPoint" />
          </mxGeometry>
        </mxCell>
        <mxCell id="TGPx2V8O0Z7DVdudsgvW-103" value="" style="rounded=1;whiteSpace=wrap;html=1;strokeColor=default;fillColor=#E7E5ED;" parent="1" vertex="1">
          <mxGeometry x="299" y="776.58" width="602" height="152" as="geometry" />
        </mxCell>
        <mxCell id="TGPx2V8O0Z7DVdudsgvW-106" value="&lt;span style=&quot;font-size: 24px;&quot;&gt;&lt;font color=&quot;#535e80&quot;&gt;6.登录验证通过&lt;/font&gt;&lt;/span&gt;" style="text;html=1;strokeColor=none;fillColor=#E7E5ED;align=center;verticalAlign=middle;whiteSpace=wrap;rounded=0;fontSize=28;fontColor=#808080;" parent="1" vertex="1">
          <mxGeometry x="621.0000000000001" y="837.58" width="276.66" height="30" as="geometry" />
        </mxCell>
        <mxCell id="TGPx2V8O0Z7DVdudsgvW-108" value="" style="shape=image;verticalLabelPosition=bottom;verticalAlign=top;imageAspect=0;aspect=fixed;image=data:image/svg+xml,PHN2ZyB4bWxuczp4bGluaz0iaHR0cDovL3d3dy53My5vcmcvMTk5OS94bGluayIgeG1sbnM9Imh0dHA6Ly93d3cudzMub3JnLzIwMDAvc3ZnIiBoZWlnaHQ9IjIwMCIgd2lkdGg9IjIwMCIgdmVyc2lvbj0iMS4xIiB2aWV3Qm94PSIwIDAgMTAyNCAxMDI0IiBjbGFzcz0iaWNvbiI+PHBhdGggZmlsbD0iIzUzNUU4MCIgZD0iTTMxMi44ODg4ODkgOTk1LjU1NTU1NmMtMTcuMDY2NjY3IDAtMjguNDQ0NDQ0LTUuNjg4ODg5LTM5LjgyMjIyMi0xNy4wNjY2NjctMjIuNzU1NTU2LTIyLjc1NTU1Ni0xNy4wNjY2NjctNTYuODg4ODg5IDUuNjg4ODg5LTc5LjY0NDQ0NWwzNjQuMDg4ODg4LTMyOS45NTU1NTVjMTEuMzc3Nzc4LTExLjM3Nzc3OCAxNy4wNjY2NjctMjIuNzU1NTU2IDE3LjA2NjY2Ny0zNC4xMzMzMzMgMC0xMS4zNzc3NzgtNS42ODg4ODktMjIuNzU1NTU2LTE3LjA2NjY2Ny0zNC4xMzMzMzRMMjczLjA2NjY2NyAxODcuNzMzMzMzYy0yMi43NTU1NTYtMjIuNzU1NTU2LTI4LjQ0NDQ0NC01Ni44ODg4ODktNS42ODg4ODktNzkuNjQ0NDQ0IDIyLjc1NTU1Ni0yMi43NTU1NTYgNTYuODg4ODg5LTI4LjQ0NDQ0NCA3OS42NDQ0NDQtNS42ODg4ODlsMzY0LjA4ODg4OSAzMTIuODg4ODg5YzM0LjEzMzMzMyAyOC40NDQ0NDQgNTYuODg4ODg5IDczLjk1NTU1NiA1Ni44ODg4ODkgMTE5LjQ2NjY2N3MtMTcuMDY2NjY3IDg1LjMzMzMzMy01MS4yIDExOS40NjY2NjZsLTM2NC4wODg4ODkgMzI5Ljk1NTU1NmMtMTEuMzc3Nzc4IDUuNjg4ODg5LTI4LjQ0NDQ0NCAxMS4zNzc3NzgtMzkuODIyMjIyIDExLjM3Nzc3OHoiLz48L3N2Zz4=;flipH=1;fillColor=#E7E5ED;" parent="1" vertex="1">
          <mxGeometry x="573" y="825.08" width="55" height="55" as="geometry" />
        </mxCell>
        <mxCell id="TGPx2V8O0Z7DVdudsgvW-134" value="&lt;font style=&quot;font-size: 24px;&quot;&gt;&lt;font color=&quot;#4a919b&quot;&gt;3.用服务器公钥加密&lt;br&gt;账号密码&lt;/font&gt;&lt;br&gt;&lt;/font&gt;" style="text;html=1;strokeColor=none;fillColor=none;align=center;verticalAlign=middle;whiteSpace=wrap;rounded=0;fontSize=28;fontColor=#808080;" parent="1" vertex="1">
          <mxGeometry x="92" y="755.58" width="121" height="102" as="geometry" />
        </mxCell>
        <mxCell id="TGPx2V8O0Z7DVdudsgvW-135" value="&lt;font style=&quot;font-size: 24px;&quot;&gt;&lt;font color=&quot;#4a919b&quot;&gt;4.用服务器私钥解密获得原来的账号密码&lt;/font&gt;&lt;br&gt;&lt;/font&gt;" style="text;html=1;strokeColor=none;fillColor=none;align=center;verticalAlign=middle;whiteSpace=wrap;rounded=0;fontSize=28;fontColor=#808080;" parent="1" vertex="1">
          <mxGeometry x="910" y="585.58" width="155" height="102" as="geometry" />
        </mxCell>
        <mxCell id="TGPx2V8O0Z7DVdudsgvW-139" value="" style="shape=image;verticalLabelPosition=bottom;verticalAlign=top;imageAspect=0;aspect=fixed;image=data:image/svg+xml,PHN2ZyB4bWxuczp4bGluaz0iaHR0cDovL3d3dy53My5vcmcvMTk5OS94bGluayIgeG1sbnM9Imh0dHA6Ly93d3cudzMub3JnLzIwMDAvc3ZnIiBoZWlnaHQ9IjIwMCIgd2lkdGg9IjIwMCIgdmVyc2lvbj0iMS4xIiB2aWV3Qm94PSIwIDAgMTAyNCAxMDI0IiBjbGFzcz0iaWNvbiI+PHBhdGggZmlsbD0iIzUzNUU4MCIgZD0iTTAgNzI4djEzNmMwIDM1LjMgMjguNyA2NCA2NCA2NGg4OTZjMzUuMyAwIDY0LTI4LjcgNjQtNjRWNzI4YzAtNC40LTMuNi04LTgtOEg4Yy00LjQgMC04IDMuNi04IDh6IG03NzQgOTZjMCA0LjQtMy42IDgtOCA4SDQyNGMtNC40IDAtOC0zLjYtOC04di00OGMwLTQuNCAzLjYtOCA4LThoMzQyYzQuNCAwIDggMy42IDggOHY0OHogbTEyMiAwYzAgNC40LTMuNiA4LTggOGgtNDhjLTQuNCAwLTgtMy42LTgtOHYtNDhjMC00LjQgMy42LTggOC04aDQ4YzQuNCAwIDggMy42IDggOHY0OHpNMCA1MzZ2MTQ0YzAgNC40IDMuNiA4IDggOGgxMDA4YzQuNCAwIDgtMy42IDgtOFY1MzZjMC00LjQtMy42LTgtOC04SDhjLTQuNCAwLTggMy42LTggOHogbTc3NCA5NmMwIDQuNC0zLjYgOC04IDhINDI0Yy00LjQgMC04LTMuNi04LTh2LTQ4YzAtNC40IDMuNi04IDgtOGgzNDJjNC40IDAgOCAzLjYgOCA4djQ4eiBtMTIyIDBjMCA0LjQtMy42IDgtOCA4aC00OGMtNC40IDAtOC0zLjYtOC04di00OGMwLTQuNCAzLjYtOCA4LThoNDhjNC40IDAgOCAzLjYgOCA4djQ4ek0wIDM0NHYxNDRjMCA0LjQgMy42IDggOCA4aDEwMDhjNC40IDAgOC0zLjYgOC04VjM0NGMwLTQuNC0zLjYtOC04LThIOGMtNC40IDAtOCAzLjYtOCA4eiBtNzc0IDk2YzAgNC40LTMuNiA4LTggOEg0MjRjLTQuNCAwLTgtMy42LTgtOHYtNDhjMC00LjQgMy42LTggOC04aDM0MmM0LjQgMCA4IDMuNiA4IDh2NDh6IG0xMjIgMGMwIDQuNC0zLjYgOC04IDhoLTQ4Yy00LjQgMC04LTMuNi04LTh2LTQ4YzAtNC40IDMuNi04IDgtOGg0OGM0LjQgMCA4IDMuNiA4IDh2NDh6TTk2MCA5Nkg2NGMtMzUuMyAwLTY0IDI4LjctNjQgNjR2MTM2YzAgNC40IDMuNiA4IDggOGgxMDA4YzQuNCAwIDgtMy42IDgtOFYxNjBjMC0zNS4zLTI4LjctNjQtNjQtNjR6TTc3NCAyNDhjMCA0LjQtMy42IDgtOCA4SDQyNGMtNC40IDAtOC0zLjYtOC04di00OGMwLTQuNCAzLjYtOCA4LThoMzQyYzQuNCAwIDggMy42IDggOHY0OHogbTEyMiAwYzAgNC40LTMuNiA4LTggOGgtNDhjLTQuNCAwLTgtMy42LTgtOHYtNDhjMC00LjQgMy42LTggOC04aDQ4YzQuNCAwIDggMy42IDggOHY0OHoiLz48L3N2Zz4=" parent="1" vertex="1">
          <mxGeometry x="743" y="72.00000000000003" width="155" height="155" as="geometry" />
        </mxCell>
        <mxCell id="5iUmlsxjvdSU9kBIYJvV-1" value="" style="shape=image;verticalLabelPosition=bottom;verticalAlign=top;imageAspect=0;aspect=fixed;image=data:image/svg+xml,PHN2ZyB4bWxuczp4bGluaz0iaHR0cDovL3d3dy53My5vcmcvMTk5OS94bGluayIgeG1sbnM9Imh0dHA6Ly93d3cudzMub3JnLzIwMDAvc3ZnIiBoZWlnaHQ9IjIwMCIgd2lkdGg9IjIwMCIgdmVyc2lvbj0iMS4xIiB2aWV3Qm94PSIwIDAgMTAyNCAxMDI0IiBjbGFzcz0iaWNvbiI+PHBhdGggZmlsbD0iIzUzNUU4MCIgZD0iTTQ0Ni42ODA0MDcgNTEzLjcwNDcyNmgxMzYuMDc4NzM5djUxMC4yOTUyNzRoLTEzNi4wNzg3Mzl6Ii8+PHBhdGggZmlsbD0iIzUzNUU4MCIgZD0iTTUzMi40MTAwMTMgNjY2Ljc5MzMwOGgxMTUuNjY2OTI4djEzNi4wNzg3NEg1MzIuNDEwMDEzek01MzIuNDEwMDEzIDg0My42OTU2N2gxNDkuNjg2NjEzdjEzNi4wNzg3NEg1MzIuNDEwMDEzek01MTEuOTk4MjAyIDU4NS4xNDYwNjVBMjkwLjUyODEwOSAyOTAuNTI4MTA5IDAgMCAxIDIxOS40Mjg5MTIgMjkyLjU3Njc3NSAyOTAuNTI4MTA5IDI5MC41MjgxMDkgMCAwIDEgNTExLjk5ODIwMiAwLjAwNzQ4NGEyOTAuNTI4MTA5IDI5MC41MjgxMDkgMCAwIDEgMjkyLjU2OTI5IDI5Mi41NjkyOTEgMjkwLjUyODEwOSAyOTAuNTI4MTA5IDAgMCAxLTI5Mi41NjkyOSAyOTIuNTY5Mjl6IG0wLTQ0OS4wNTk4NDFBMTUzLjc2ODk3NiAxNTMuNzY4OTc2IDAgMCAwIDM1NS41MDc2NTEgMjkyLjU3Njc3NWExNTMuNzY4OTc2IDE1My43Njg5NzYgMCAwIDAgMTU2LjQ5MDU1MSAxNTYuNDkwNTUgMTUzLjc2ODk3NiAxNTMuNzY4OTc2IDAgMCAwIDE1Ni40OTA1NS0xNTYuNDkwNTVBMTUzLjc2ODk3NiAxNTMuNzY4OTc2IDAgMCAwIDUxMS45OTgyMDIgMTM2LjA4NjIyNHoiLz48L3N2Zz4=;strokeColor=#E6D7C2;fontSize=28;fontColor=#808080;fillColor=#E6D7C2;" vertex="1" parent="1">
          <mxGeometry x="662" y="508.08000000000027" width="52" height="52" as="geometry" />
        </mxCell>
        <mxCell id="5iUmlsxjvdSU9kBIYJvV-2" value="&lt;font color=&quot;#535e80&quot; style=&quot;font-size: 21px;&quot;&gt;服务器公钥&lt;/font&gt;" style="text;html=1;strokeColor=none;fillColor=none;align=center;verticalAlign=middle;whiteSpace=wrap;rounded=0;fontColor=#4A919B;" vertex="1" parent="1">
          <mxGeometry x="716" y="522.7400000000001" width="117" height="29" as="geometry" />
        </mxCell>
        <mxCell id="5iUmlsxjvdSU9kBIYJvV-3" value="&lt;font style=&quot;font-size: 24px;&quot;&gt;&lt;font color=&quot;#4a919b&quot;&gt;2.服务器发送公钥给客户端&lt;/font&gt;&lt;br&gt;&lt;/font&gt;" style="text;html=1;strokeColor=none;fillColor=none;align=center;verticalAlign=middle;whiteSpace=wrap;rounded=0;fontSize=28;fontColor=#808080;" vertex="1" parent="1">
          <mxGeometry x="914" y="404.58000000000004" width="155" height="102" as="geometry" />
        </mxCell>
        <mxCell id="5iUmlsxjvdSU9kBIYJvV-4" value="" style="shape=flexArrow;endArrow=classic;html=1;rounded=0;fontSize=28;fontColor=#808080;width=9.18032786885246;endSize=4.6;strokeColor=none;fillColor=#4A919B;" edge="1" parent="1">
          <mxGeometry width="50" height="50" relative="1" as="geometry">
            <mxPoint x="949.49" y="766.0799999999996" as="sourcePoint" />
            <mxPoint x="949.49" y="805.08" as="targetPoint" />
          </mxGeometry>
        </mxCell>
        <mxCell id="5iUmlsxjvdSU9kBIYJvV-5" value="" style="shape=image;verticalLabelPosition=bottom;labelBackgroundColor=default;verticalAlign=top;aspect=fixed;imageAspect=0;image=data:image/svg+xml,PHN2ZyB4bWxuczp4bGluaz0iaHR0cDovL3d3dy53My5vcmcvMTk5OS94bGluayIgeG1sbnM9Imh0dHA6Ly93d3cudzMub3JnLzIwMDAvc3ZnIiBoZWlnaHQ9IjEyOCIgd2lkdGg9IjEyOCIgdmVyc2lvbj0iMS4xIiB2aWV3Qm94PSIwIDAgMTAyNCAxMDI0IiBjbGFzcz0iaWNvbiI+PHBhdGggZmlsbD0iIzRBOTE5QiIgZD0iTTUxMiA2OS44MTgxODJjMzQ5LjA5MDkwOSAwIDM3Mi4zNjM2MzYgOTMuMDkwOTA5IDM3Mi4zNjM2MzYgOTMuMDkwOTA5djMwOS41MjcyNzNhNDY1LjE5ODU0NSA0NjUuMTk4NTQ1IDAgMCAxLTIzNy4yNjU0NTQgNDA1LjY0MzYzNkw1MTIgOTU0LjE4MTgxOGwtMTM1LjA5ODE4Mi03Ni4xMDE4MThBNDY1LjE5ODU0NSA0NjUuMTk4NTQ1IDAgMCAxIDEzOS42MzYzNjQgNDcyLjQzNjM2NFYxNjIuOTA5MDkxczAtOTMuMDkwOTA5IDM3Mi4zNjM2MzYtOTMuMDkwOTA5bTAtNjkuODE4MTgyQzM0Ni42MjQgMCAyMjYuNTEzNDU1IDE4LjE1MjcyNyAxNTQuOTQ5ODE4IDUzLjk5MjcyNyA3NS45NjIxODIgOTMuMzIzNjM2IDY5LjgxODE4MiAxNDcuMzE2MzY0IDY5LjgxODE4MiAxNjIuOTA5MDkxdjMwOS41MjcyNzNhNTM2LjA0MDcyNyA1MzYuMDQwNzI3IDAgMCAwIDI3Mi44NDk0NTQgNDY2LjYxODE4MWwxMzUuMDk4MTgyIDc1Ljg2OTA5MWE2OS4wOTY3MjcgNjkuMDk2NzI3IDAgMCAwIDY4LjQ2ODM2NCAwbDEzNS4wOTgxODItNzUuODY5MDkxQTUzNi4wNDA3MjcgNTM2LjA0MDcyNyAwIDAgMCA5NTQuMTgxODE4IDQ3Mi40MzYzNjRWMTYyLjkwOTA5MWE2OS4zMjk0NTUgNjkuMzI5NDU1IDAgMCAwLTIuMDk0NTQ1LTE2Ljk4OTA5MUM5MzguNDcyNzI3IDkxLjQ2MTgxOCA4NjMuMTYyMTgyIDAgNTEyIDB6IG0tMjMuMjcyNzI3IDY0MGEzNS4xMTg1NDUgMzUuMTE4NTQ1IDAgMCAxLTI0LjY5MjM2NC0xMC4yNGwtMTYyLjkwOTA5MS0xNjIuOTA5MDkxYTM0LjkwOTA5MSAzNC45MDkwOTEgMCAwIDEgNDkuMzM4MTgyLTQ5LjMzODE4MmwxMzguMjQgMTM4LjI0IDIzMS4zMzA5MDktMjMxLjMzMDkwOWEzNC45MDkwOTEgMzQuOTA5MDkxIDAgMSAxIDQ5LjMzODE4MiA0OS4zMzgxODJsLTI1NiAyNTZBMzUuMTE4NTQ1IDM1LjExODU0NSAwIDAgMSA0ODguNzI3MjczIDY0MHoiLz48L3N2Zz4=;" vertex="1" parent="1">
          <mxGeometry x="922" y="818.08" width="54" height="54" as="geometry" />
        </mxCell>
        <mxCell id="5iUmlsxjvdSU9kBIYJvV-6" value="&lt;font style=&quot;font-size: 24px;&quot;&gt;&lt;font color=&quot;#4a919b&quot;&gt;5.验证账号&lt;/font&gt;&lt;br&gt;&lt;/font&gt;" style="text;html=1;strokeColor=none;fillColor=none;align=center;verticalAlign=middle;whiteSpace=wrap;rounded=0;fontSize=28;fontColor=#808080;" vertex="1" parent="1">
          <mxGeometry x="974.5" y="794.08" width="155" height="102" as="geometry" />
        </mxCell>
      </root>
    </mxGraphModel>
  </diagram>
</mxfile>
